<?xml version="1.0" encoding="UTF-8" standalone="no"?>
<!-- Created with Inkscape (http://www.inkscape.org/) -->

<svg
   xmlns:dc="http://purl.org/dc/elements/1.1/"
   xmlns:cc="http://creativecommons.org/ns#"
   xmlns:rdf="http://www.w3.org/1999/02/22-rdf-syntax-ns#"
   xmlns:svg="http://www.w3.org/2000/svg"
   xmlns="http://www.w3.org/2000/svg"
   xmlns:sodipodi="http://sodipodi.sourceforge.net/DTD/sodipodi-0.dtd"
   xmlns:inkscape="http://www.inkscape.org/namespaces/inkscape"
   width="266.7886mm"
   height="4.1023479mm"
   viewBox="0 0 266.7886 4.1023479"
   version="1.1"
   id="svg831"
   inkscape:version="0.92.2 5c3e80d, 2017-08-06"
   sodipodi:docname="line.svg">
  <defs
     id="defs825" />
  <sodipodi:namedview
     id="base"
     pagecolor="#ffffff"
     bordercolor="#666666"
     borderopacity="1.0"
     inkscape:pageopacity="0.0"
     inkscape:pageshadow="2"
     inkscape:zoom="2.8"
     inkscape:cx="127.80188"
     inkscape:cy="-15.253075"
     inkscape:document-units="mm"
     inkscape:current-layer="layer1"
     showgrid="false"
     fit-margin-top="0"
     fit-margin-left="0"
     fit-margin-right="0"
     fit-margin-bottom="0"
     inkscape:window-width="1440"
     inkscape:window-height="856"
     inkscape:window-x="0"
     inkscape:window-y="0"
     inkscape:window-maximized="1"
     objecttolerance="1"
     gridtolerance="1"
     guidetolerance="1" />
  <metadata
     id="metadata828">
    <rdf:RDF>
      <cc:Work
         rdf:about="">
        <dc:format>image/svg+xml</dc:format>
        <dc:type
           rdf:resource="http://purl.org/dc/dcmitype/StillImage" />
        <dc:title></dc:title>
      </cc:Work>
    </rdf:RDF>
  </metadata>
  <g
     inkscape:label="Layer 1"
     inkscape:groupmode="layer"
     id="layer1"
     transform="translate(335.77703,58.33305)">
    <path
       style="opacity:1;fill:none;fill-opacity:1;fill-rule:evenodd;stroke:#be0f0f;stroke-width:0.26458333;stroke-linecap:round;stroke-linejoin:miter;stroke-miterlimit:4;stroke-dasharray:none;stroke-dashoffset:0;stroke-opacity:1"
       d="m -335.64285,-56.029761 c 0,0 13.69622,-0.993593 31.37202,-1.133929 17.67579,-0.140335 49.77086,2.184815 74.6503,1.511905 5.93585,-0.160546 11.82907,-1.16088 17.76488,-1.322916 20.45479,-0.558377 40.91344,1.365992 61.37527,1.21221 10.24817,-0.07702 20.48009,-0.878792 30.72678,-1.069079 11.06466,-0.205477 22.134194,-0.23853 33.199597,-0.07828 5.812716,0.08418 10.74912,0.345223 17.431423,0.546127"
       id="path1379"
       inkscape:connector-curvature="0"
       sodipodi:nodetypes="czaaaaac" />
    <path
       sodipodi:nodetypes="czaaaaac"
       inkscape:connector-curvature="0"
       id="path1423"
       d="m -335.54836,-54.423363 c 0,0 13.69622,-0.993593 31.37202,-1.133929 17.67579,-0.140335 49.77086,2.184815 74.6503,1.511905 5.93585,-0.160546 11.82907,-1.16088 17.76488,-1.322916 20.45479,-0.558377 40.91344,1.365992 61.37527,1.21221 10.24817,-0.07702 20.48009,-0.878792 30.72678,-1.069079 11.06466,-0.205477 22.134198,-0.23853 33.199601,-0.07828 5.812716,0.08418 10.74912,0.345223 17.431423,0.546127"
       style="opacity:1;fill:none;fill-opacity:1;fill-rule:evenodd;stroke:#be0f0f;stroke-width:0.26458332;stroke-linecap:round;stroke-linejoin:miter;stroke-miterlimit:4;stroke-dasharray:none;stroke-dashoffset:0;stroke-opacity:1" />
  </g>
</svg>
