<?xml version="1.0" encoding="UTF-8" standalone="no"?>
<!-- Created with Inkscape (http://www.inkscape.org/) -->

<svg
   xmlns:dc="http://purl.org/dc/elements/1.1/"
   xmlns:cc="http://creativecommons.org/ns#"
   xmlns:rdf="http://www.w3.org/1999/02/22-rdf-syntax-ns#"
   xmlns:svg="http://www.w3.org/2000/svg"
   xmlns="http://www.w3.org/2000/svg"
   xmlns:xlink="http://www.w3.org/1999/xlink"
   xmlns:sodipodi="http://sodipodi.sourceforge.net/DTD/sodipodi-0.dtd"
   xmlns:inkscape="http://www.inkscape.org/namespaces/inkscape"
   width="165.80247mm"
   height="17.186892mm"
   viewBox="0 0 165.80248 17.186892"
   version="1.1"
   id="svg8"
   inkscape:version="0.92.2 5c3e80d, 2017-08-06"
   sodipodi:docname="title.svg">
  <defs
     id="defs2">
    <linearGradient
       inkscape:collect="always"
       id="linearGradient826-7">
      <stop
         style="stop-color:#000000;stop-opacity:1;"
         offset="0"
         id="stop822" />
      <stop
         style="stop-color:#000000;stop-opacity:0;"
         offset="1"
         id="stop824" />
    </linearGradient>
    <linearGradient
       inkscape:collect="always"
       xlink:href="#linearGradient826-7"
       id="linearGradient828"
       x1="32.455441"
       y1="97.735703"
       x2="183.49417"
       y2="97.735703"
       gradientUnits="userSpaceOnUse" />
  </defs>
  <sodipodi:namedview
     id="base"
     pagecolor="#ffffff"
     bordercolor="#666666"
     borderopacity="1.0"
     inkscape:pageopacity="0.0"
     inkscape:pageshadow="2"
     inkscape:zoom="0.7"
     inkscape:cx="383.60814"
     inkscape:cy="-40.78678"
     inkscape:document-units="mm"
     inkscape:current-layer="layer1"
     showgrid="false"
     fit-margin-top="0"
     fit-margin-left="0"
     fit-margin-right="0"
     fit-margin-bottom="0"
     inkscape:window-width="1440"
     inkscape:window-height="856"
     inkscape:window-x="0"
     inkscape:window-y="0"
     inkscape:window-maximized="1"
     objecttolerance="1"
     gridtolerance="1"
     guidetolerance="1" />
  <metadata
     id="metadata5">
    <rdf:RDF>
      <cc:Work
         rdf:about="">
        <dc:format>image/svg+xml</dc:format>
        <dc:type
           rdf:resource="http://purl.org/dc/dcmitype/StillImage" />
        <dc:title></dc:title>
      </cc:Work>
    </rdf:RDF>
  </metadata>
  <g
     inkscape:label="Layer 1"
     inkscape:groupmode="layer"
     id="layer1"
     transform="translate(16.838026,-131.94394)">
    <g
       id="g1497">
      <path
         style="fill:#fafafa;stroke:#0e0e0e;stroke-width:0.26458335;stroke-opacity:1"
         d="m 76.885328,142.04267 c 2.910416,-0.11581 6.184635,-0.3361 7.276041,-0.48952 2.304077,-0.32389 9.171197,-0.48639 9.434343,-0.22324 0.567513,0.56751 -0.599516,0.64089 -12.741634,0.80112 -7.26236,0.0958 -8.118671,0.0768 -3.96875,-0.0884 z m -23.8125,-0.26933 c -1.248701,-0.0892 -1.686817,-0.19977 -1.344793,-0.33941 1.031058,-0.42097 3.531209,-0.4982 5.975001,-0.18457 1.382448,0.17743 3.763698,0.29991 5.291667,0.27219 1.527968,-0.0277 3.075781,0.0713 3.439583,0.22006 0.687769,0.28122 -9.528932,0.30548 -13.361458,0.0317 z m 97.763542,0.005 c -1.7584,-0.1331 -1.89398,-0.17954 -1.19063,-0.40783 0.93332,-0.30293 26.18028,-0.36019 26.4804,-0.06 0.10913,0.10914 0.10917,0.28773 8e-5,0.39687 -0.23103,0.23116 -22.35334,0.29327 -25.28985,0.071 z M -15.851131,141.5089 c 0,-0.14552 0.267891,-0.26276 0.595313,-0.26054 0.481393,0.003 0.519366,0.0531 0.198437,0.26054 -0.512963,0.3315 -0.79375,0.3315 -0.79375,0 z m 61.709041,0.0728 c -1.446297,-0.17907 -0.667755,-0.60198 1.108189,-0.60198 2.395775,0 4.375573,0.29533 3.714104,0.55404 -0.534508,0.20906 -3.299013,0.23654 -4.822293,0.0479 z m -6.278832,-0.3088 c -0.659575,-0.10027 -0.936157,-0.24003 -0.734071,-0.37094 0.42508,-0.27537 4.33524,0.0809 4.151466,0.37824 -0.154321,0.2497 -1.749309,0.24629 -3.417395,-0.007 z m 58.486222,-0.007 c -0.193029,-0.31232 1.326449,-0.65328 1.748613,-0.39236 0.224737,0.13889 0.167738,0.25701 -0.191982,0.39788 -0.720481,0.28214 -1.380294,0.2798 -1.556631,-0.006 z m 3.0803,0.0567 c -0.91596,-0.17853 -0.54458,-0.71418 0.63229,-0.91197 0.92126,-0.15484 3.4626,0.12886 3.75265,0.41891 0.0971,0.097 -0.70022,0.23291 -3.11292,0.53048 -0.3638,0.0449 -0.93621,0.028 -1.27202,-0.0374 z m 84.76349,-0.0532 c -0.221,-0.3576 2.13964,-0.60908 5.06792,-0.53991 1.42426,0.0336 3.31709,-0.0305 4.20629,-0.14265 1.87074,-0.23586 9.52072,0.0871 9.18925,0.38791 -0.32667,0.29648 -18.2852,0.58307 -18.46346,0.29465 z M -6.7897124,140.91344 c 0.1222132,-0.36851 5.1227641,-0.6163 6.28441457,-0.31141 1.26059375,0.33086 -0.2261717,0.60389 -3.39548607,0.62355 -2.287397,0.0142 -2.9725966,-0.0598 -2.8889285,-0.31214 z m 40.0187904,0.0662 c -0.0989,-0.16003 0.267041,-0.26458 0.926041,-0.26458 0.659001,0 1.024946,0.10455 0.926042,0.26458 -0.08994,0.14552 -0.506656,0.26458 -0.926042,0.26458 -0.419385,0 -0.836104,-0.11906 -0.926041,-0.26458 z M 2.9342855,140.71501 c -0.2794558,-0.1806 0.096992,-0.25768 1.2723857,-0.26054 1.046398,-0.003 1.608245,0.0947 1.5057393,0.26054 -0.2088031,0.33785 -2.255339,0.33785 -2.778125,0 z m 103.9812545,0.0208 c -0.98165,-0.2835 6.38906,-0.61645 8.80344,-0.39766 1.11723,0.10124 1.96773,0.28698 1.88999,0.41276 -0.16869,0.27295 -9.74284,0.25944 -10.69343,-0.0151 z m 18.25624,-0.0208 c 0,-0.14552 0.46923,-0.26459 1.04272,-0.26459 0.5735,0 1.11631,0.11907 1.20624,0.26459 0.0999,0.16161 -0.30593,0.26458 -1.04271,0.26458 -0.66344,0 -1.20625,-0.11906 -1.20625,-0.26458 z m -69.595714,-0.17918 c -1.653828,-0.21463 -2.370947,-0.41548 -2.370947,-0.66408 0,-0.20796 1.966569,-0.23536 6.945313,-0.0968 3.819922,0.10633 6.994922,0.24227 7.055556,0.3021 0.394822,0.38956 -0.926608,0.50584 -5.765019,0.50728 -3.01308,9.1e-4 -5.652286,-0.0209 -5.864903,-0.0485 z m 38.441033,-0.28974 c -0.618464,-0.0499 -1.12448,-0.18382 -1.12448,-0.29767 0,-0.67264 9.654601,-1.22238 21.298961,-1.21277 7.50768,0.006 22.39921,0.38653 22.71238,0.58008 0.8173,0.50513 -2.38864,0.58637 -18.34676,0.46494 -10.59087,-0.0806 -18.23626,-0.0362 -18.785414,0.10913 -1.104813,0.29233 -4.183801,0.48295 -5.754687,0.35629 z m 84.753681,-0.29107 c -0.17629,-0.28524 1.37385,-0.55614 3.20466,-0.56002 1.37458,-0.003 2.03355,0.32985 1.24923,0.63082 -0.64394,0.24711 -4.29327,0.18909 -4.45389,-0.0708 z m 6.32595,-0.30349 c -0.0749,-0.12126 0.54996,-0.30934 1.38867,-0.41796 2.00349,-0.25947 48.9136,-0.29755 49.17165,-0.0399 0.10932,0.10914 0.10943,0.28774 2.5e-4,0.39688 -0.27424,0.27412 -50.39149,0.33458 -50.56057,0.061 z m -182.9561945,-0.36031 -2.24895833,-0.296 3.30729163,-0.1323 c 4.0533487,-0.16213 24.7962422,-0.0171 30.7734292,0.21514 0.699812,0.0272 1.204904,0.15863 1.122428,0.29208 -0.221991,0.35919 -30.1705,0.28747 -32.9541905,-0.0789 z m -4.8255611,-0.35084 c 0.3291187,-0.0633 0.8053687,-0.0609 1.0583334,0.005 0.2529649,0.0662 -0.016314,0.118 -0.5983973,0.11506 -0.5820833,-0.003 -0.7890544,-0.0571 -0.4599361,-0.1204 z"
         id="path1509"
         inkscape:connector-curvature="0" />
    </g>
    <text
       xml:space="preserve"
       style="font-style:normal;font-weight:normal;font-size:10.58333302px;line-height:1.25;font-family:sans-serif;letter-spacing:-1.28587496px;word-spacing:5.1435008px;fill:#000000;fill-opacity:1;stroke:#ffffff;stroke-width:0.5291667;stroke-miterlimit:4;stroke-dasharray:none;stroke-opacity:0.94117647;"
       x="-17.675873"
       y="148.63474"
       id="text12"><tspan
         sodipodi:role="line"
         id="tspan10"
         x="-17.675873"
         y="148.63474"
         style="font-style:normal;font-variant:normal;font-weight:bold;font-stretch:normal;font-size:22.57777786px;font-family:Oxygen;-inkscape-font-specification:'Oxygen Bold';letter-spacing:-0.01058331px;word-spacing:5.87904167px;fill:#000000;fill-opacity:1;stroke:#ffffff;stroke-width:0.5291667;stroke-miterlimit:4;stroke-dasharray:none;stroke-opacity:0.94117647;"
         dx="0 0 0 0 0 0 0 0 0 0 0">GENUARY 2023</tspan></text>
  </g>
</svg>
